<svg width="152" height="39" viewBox="0 0 152 39" fill="none" xmlns="http://www.w3.org/2000/svg">
<path d="M15.1905 22.126C15.2462 21.2832 15.3354 20.4429 15.4581 19.6072C15.8435 17.0336 16.5288 14.514 17.5002 12.0997C18.0711 10.6925 18.5217 9.88647 18.5217 9.88647L22.4358 10.3913C22.4358 10.3913 21.9841 11.3338 21.4955 13.1809C21.2972 13.9306 21.0936 14.8319 20.9105 15.8838C20.8173 16.4146 20.7307 16.9801 20.6527 17.5879C20.5443 18.434 20.4544 19.3559 20.3905 20.3493C20.3537 20.9105 20.3277 21.4955 20.3103 22.1032C20.3038 22.3242 20.2941 22.5376 20.2908 22.7651C20.284 23.4855 20.3268 24.2054 20.4187 24.9199C20.4988 25.5699 20.6158 26.2166 20.7556 26.858C20.9537 27.763 21.1959 28.6578 21.4814 29.5392C21.6992 30.2102 21.9359 30.8749 22.191 31.5326C22.5637 32.4978 22.9385 33.3656 23.2624 34.0881C23.8062 35.3004 24.206 36.1064 24.206 36.2743C24.206 36.8051 23.8268 37.7996 21.1759 38.4626C17.03 39.4983 16.6302 37.7899 16.6302 37.7899C16.6302 37.7899 16.367 36.9904 16.0604 35.4152C15.9087 34.6374 15.7473 33.6765 15.6011 32.5141C15.5133 31.8186 15.4321 31.0537 15.3606 30.2217C15.212 28.4691 15.1325 26.7113 15.1222 24.9524C15.1201 24.6859 15.1136 24.4281 15.1136 24.154C15.1136 23.4606 15.1461 22.7879 15.1905 22.126Z" fill="white"/>
<path d="M19.1685 32.5736C20.6884 32.3093 21.658 31.8662 22.1899 31.5347C22.5626 32.5 22.9374 33.3677 23.2614 34.0903C22.269 34.6309 21.0091 35.0599 19.6419 35.2971C18.8522 35.4347 18.0689 35.5041 17.3334 35.5041C16.8849 35.5041 16.4634 35.4683 16.0594 35.4174C15.9077 34.6396 15.7463 33.6786 15.6 32.5162C16.081 32.6863 17.277 32.903 19.1685 32.5736ZM18.0202 27.5112C19.2043 27.3942 20.1154 27.1342 20.7556 26.8591C20.9537 27.7641 21.1959 28.6589 21.4814 29.5403C20.5454 29.8935 19.4437 30.1481 18.291 30.2618C17.8263 30.3073 17.3648 30.3311 16.9152 30.3311C16.3714 30.3311 15.8557 30.2889 15.3606 30.2239C15.2869 29.3572 15.2252 28.418 15.1819 27.4018C15.8622 27.5481 16.8166 27.6293 18.0202 27.5112ZM17.6854 25.2005C16.7949 25.2005 15.9196 25.1106 15.1223 24.9535C15.1201 24.687 15.1136 24.4291 15.1136 24.1551C15.1136 23.4606 15.145 22.7879 15.1905 22.126C15.7636 22.2755 16.5826 22.4206 17.7385 22.4358C18.9129 22.4304 19.7394 22.2679 20.3104 22.1043C20.3039 22.3253 20.2941 22.5387 20.2909 22.7662C20.2841 23.4866 20.3268 24.2065 20.4187 24.921C19.5921 25.0954 18.6799 25.1951 17.7526 25.1994L17.6854 25.2005ZM17.9552 20.2421C17.1044 20.1134 16.2683 19.9011 15.4592 19.6083C15.596 18.6939 15.7713 17.7856 15.9846 16.8859C16.5219 17.1069 17.2835 17.3528 18.3474 17.5056C19.1102 17.6243 19.8844 17.6523 20.6538 17.589C20.5454 18.4351 20.4555 19.357 20.3916 20.3504C20.2269 20.3569 20.0774 20.3818 19.9084 20.3818C19.2714 20.3829 18.6084 20.3352 17.9552 20.2421ZM16.5783 14.6997C16.8493 13.8205 17.1572 12.953 17.5013 12.0997C18.1036 12.3989 18.7338 12.638 19.383 12.8136C20.0723 13.0115 20.7809 13.1346 21.4966 13.1809C21.2984 13.9306 21.0947 14.8319 20.9116 15.8838C20.1452 15.8132 19.3862 15.6769 18.6431 15.4765C17.9075 15.2728 17.2239 14.9998 16.5783 14.6997Z" fill="white"/>
<path d="M3.67252 4.66375C3.72018 4.59767 8.52585 -1.82975 14.7594 0.991249C17.5554 2.2555 19.3603 4.32142 20.0146 6.9875C21.2334 5.28883 23.0859 4.20875 25.532 3.77217C32.2476 2.574 36.2841 10.0208 36.3242 10.0967C36.3827 10.2072 36.3578 10.3447 36.2635 10.4271C36.1693 10.5094 36.0284 10.5148 35.9266 10.4433C35.8963 10.4217 32.8434 8.28425 27.755 9.18992C22.5539 10.1151 18.9074 11.0251 18.8706 11.0337C18.8233 11.0452 18.7738 11.0439 18.7272 11.03C18.6806 11.0161 18.6385 10.9901 18.6052 10.9547C18.5705 10.9167 15.1169 7.20633 11.9394 5.76875C7.23885 3.64433 4.03327 5.05483 4.00294 5.06892C3.94826 5.09346 3.88703 5.09934 3.82868 5.08563C3.77034 5.07193 3.71813 5.03941 3.6801 4.99308C3.64211 4.94698 3.62071 4.88945 3.61933 4.82973C3.61796 4.77 3.63669 4.71155 3.67252 4.66375Z" fill="white"/>
<path d="M8.7923 8.26584C13.5644 5.74384 17.2954 6.97343 19.6202 8.50418C22.4098 7.97659 27.5654 8.00693 31.9312 13.6034C37.3295 20.5227 32.6007 29.1406 32.552 29.2273C32.5121 29.2972 32.4524 29.3537 32.3805 29.3897C32.3085 29.4257 32.2275 29.4396 32.1477 29.4297C32.0678 29.4197 31.9927 29.3863 31.9318 29.3337C31.871 29.2811 31.827 29.2116 31.8056 29.1341C31.7893 29.0756 30.1513 23.1541 26.0097 18.1729C23.7629 15.4689 21.0806 12.9664 19.1761 11.3046C17.2672 11.6274 14.4885 12.3305 11.7596 13.8548C6.38839 16.8588 3.92272 21.9429 3.89781 21.9938C3.86204 22.0703 3.80317 22.1336 3.72951 22.1748C3.65584 22.216 3.57109 22.233 3.48722 22.2235C3.40367 22.2142 3.32502 22.1794 3.26201 22.1237C3.199 22.0681 3.15469 21.9944 3.13514 21.9126C3.11347 21.8173 1.00314 12.3793 8.7923 8.26584Z" fill="white"/>
<path d="M44.336 32C44.064 32 43.84 31.912 43.664 31.736C43.488 31.56 43.4 31.336 43.4 31.064V14.192C43.4 13.92 43.488 13.696 43.664 13.52C43.84 13.344 44.064 13.256 44.336 13.256C44.608 13.256 44.832 13.344 45.008 13.52C45.184 13.696 45.272 13.92 45.272 14.192V21.68H56.984V14.192C56.984 13.92 57.072 13.696 57.248 13.52C57.424 13.344 57.648 13.256 57.92 13.256C58.192 13.256 58.416 13.344 58.592 13.52C58.768 13.696 58.856 13.92 58.856 14.192V31.064C58.856 31.336 58.768 31.56 58.592 31.736C58.416 31.912 58.192 32 57.92 32C57.648 32 57.424 31.912 57.248 31.736C57.072 31.56 56.984 31.336 56.984 31.064V23.36H45.272V31.064C45.272 31.336 45.184 31.56 45.008 31.736C44.832 31.912 44.608 32 44.336 32ZM69.386 32.12C68.106 32.12 66.962 31.832 65.954 31.256C64.946 30.68 64.154 29.888 63.578 28.88C63.002 27.872 62.714 26.728 62.714 25.448C62.714 24.152 63.002 23 63.578 21.992C64.154 20.984 64.946 20.192 65.954 19.616C66.962 19.04 68.106 18.752 69.386 18.752C70.666 18.752 71.802 19.04 72.794 19.616C73.802 20.192 74.594 20.984 75.17 21.992C75.746 23 76.042 24.152 76.058 25.448C76.058 26.728 75.762 27.872 75.17 28.88C74.594 29.888 73.802 30.68 72.794 31.256C71.802 31.832 70.666 32.12 69.386 32.12ZM69.386 30.44C70.314 30.44 71.146 30.224 71.882 29.792C72.618 29.36 73.194 28.768 73.61 28.016C74.026 27.264 74.234 26.408 74.234 25.448C74.234 24.488 74.026 23.632 73.61 22.88C73.194 22.112 72.618 21.512 71.882 21.08C71.146 20.648 70.314 20.432 69.386 20.432C68.458 20.432 67.626 20.648 66.89 21.08C66.154 21.512 65.57 22.112 65.138 22.88C64.722 23.632 64.514 24.488 64.514 25.448C64.514 26.408 64.722 27.264 65.138 28.016C65.57 28.768 66.154 29.36 66.89 29.792C67.626 30.224 68.458 30.44 69.386 30.44ZM82.4842 32C81.8442 32 81.2682 31.824 80.7562 31.472C80.2602 31.12 79.8682 30.632 79.5802 30.008C79.3082 29.384 79.1722 28.664 79.1722 27.848V14.168C79.1722 13.896 79.2522 13.68 79.4122 13.52C79.5882 13.344 79.8122 13.256 80.0842 13.256C80.3562 13.256 80.5722 13.344 80.7322 13.52C80.9082 13.68 80.9962 13.896 80.9962 14.168V27.848C80.9962 28.536 81.1322 29.096 81.4042 29.528C81.6922 29.96 82.0522 30.176 82.4842 30.176H83.0842C83.3242 30.176 83.5162 30.264 83.6602 30.44C83.8042 30.6 83.8762 30.816 83.8762 31.088C83.8762 31.36 83.7722 31.584 83.5642 31.76C83.3722 31.92 83.1162 32 82.7962 32H82.4842ZM87.7456 32C87.4576 32 87.2256 31.92 87.0496 31.76C86.8896 31.584 86.8096 31.352 86.8096 31.064V19.808C86.8096 19.52 86.8896 19.296 87.0496 19.136C87.2256 18.96 87.4576 18.872 87.7456 18.872C88.0176 18.872 88.2336 18.96 88.3936 19.136C88.5696 19.296 88.6576 19.52 88.6576 19.808V31.064C88.6576 31.352 88.5696 31.584 88.3936 31.76C88.2336 31.92 88.0176 32 87.7456 32ZM87.7216 16.376C87.3696 16.376 87.0656 16.248 86.8096 15.992C86.5536 15.736 86.4256 15.424 86.4256 15.056C86.4256 14.656 86.5536 14.344 86.8096 14.12C87.0816 13.88 87.3936 13.76 87.7456 13.76C88.0816 13.76 88.3776 13.88 88.6336 14.12C88.9056 14.344 89.0416 14.656 89.0416 15.056C89.0416 15.424 88.9136 15.736 88.6576 15.992C88.4016 16.248 88.0896 16.376 87.7216 16.376ZM99.3391 32.12C98.0751 32.12 96.9391 31.832 95.9311 31.256C94.9231 30.664 94.1231 29.864 93.5311 28.856C92.9551 27.848 92.6671 26.704 92.6671 25.424C92.6671 24.16 92.9471 23.024 93.5071 22.016C94.0831 21.008 94.8591 20.216 95.8351 19.64C96.8111 19.048 97.9151 18.752 99.1471 18.752C100.219 18.752 101.187 18.984 102.051 19.448C102.915 19.896 103.611 20.496 104.139 21.248V14.192C104.139 13.904 104.227 13.68 104.403 13.52C104.579 13.344 104.803 13.256 105.075 13.256C105.347 13.256 105.571 13.344 105.747 13.52C105.923 13.68 106.011 13.904 106.011 14.192V25.52C105.979 26.768 105.667 27.896 105.075 28.904C104.499 29.896 103.707 30.68 102.699 31.256C101.707 31.832 100.587 32.12 99.3391 32.12ZM99.3391 30.44C100.267 30.44 101.091 30.224 101.811 29.792C102.547 29.344 103.123 28.744 103.539 27.992C103.971 27.24 104.187 26.384 104.187 25.424C104.187 24.48 103.971 23.632 103.539 22.88C103.123 22.112 102.547 21.512 101.811 21.08C101.091 20.648 100.267 20.432 99.3391 20.432C98.4271 20.432 97.6031 20.648 96.8671 21.08C96.1311 21.512 95.5471 22.112 95.1151 22.88C94.6831 23.632 94.4671 24.48 94.4671 25.424C94.4671 26.384 94.6831 27.24 95.1151 27.992C95.5471 28.744 96.1311 29.344 96.8671 29.792C97.6031 30.224 98.4271 30.44 99.3391 30.44ZM116.116 32.12C114.884 32.12 113.78 31.832 112.804 31.256C111.828 30.664 111.052 29.864 110.476 28.856C109.916 27.848 109.636 26.712 109.636 25.448C109.636 24.168 109.924 23.024 110.5 22.016C111.092 21.008 111.892 20.216 112.9 19.64C113.908 19.048 115.044 18.752 116.308 18.752C117.572 18.752 118.7 19.048 119.692 19.64C120.7 20.216 121.492 21.008 122.068 22.016C122.66 23.024 122.964 24.168 122.98 25.448L122.236 26.024C122.236 27.176 121.964 28.216 121.42 29.144C120.892 30.056 120.164 30.784 119.236 31.328C118.324 31.856 117.284 32.12 116.116 32.12ZM116.308 30.44C117.236 30.44 118.06 30.224 118.78 29.792C119.516 29.36 120.092 28.768 120.508 28.016C120.94 27.248 121.156 26.392 121.156 25.448C121.156 24.488 120.94 23.632 120.508 22.88C120.092 22.128 119.516 21.536 118.78 21.104C118.06 20.656 117.236 20.432 116.308 20.432C115.396 20.432 114.572 20.656 113.836 21.104C113.1 21.536 112.516 22.128 112.084 22.88C111.652 23.632 111.436 24.488 111.436 25.448C111.436 26.392 111.652 27.248 112.084 28.016C112.516 28.768 113.1 29.36 113.836 29.792C114.572 30.224 115.396 30.44 116.308 30.44ZM122.044 32C121.772 32 121.548 31.92 121.372 31.76C121.196 31.584 121.108 31.36 121.108 31.088V26.984L121.564 25.088L122.98 25.448V31.088C122.98 31.36 122.892 31.584 122.716 31.76C122.54 31.92 122.316 32 122.044 32ZM127.654 31.376L126.142 30.56L135.07 19.208L136.318 20.264L127.654 31.376ZM126.814 32C126.254 32 125.974 31.72 125.974 31.16C125.974 30.6 126.254 30.32 126.814 30.32H135.718C136.278 30.32 136.558 30.6 136.558 31.16C136.558 31.72 136.278 32 135.718 32H126.814ZM126.718 20.552C126.158 20.552 125.878 20.272 125.878 19.712C125.878 19.152 126.158 18.872 126.718 18.872H135.622C136.182 18.872 136.462 19.152 136.462 19.712C136.462 20.272 136.182 20.552 135.622 20.552H126.718ZM145.229 32.12C143.933 32.12 142.781 31.84 141.773 31.28C140.781 30.704 139.997 29.912 139.421 28.904C138.861 27.896 138.581 26.744 138.581 25.448C138.581 24.136 138.845 22.984 139.373 21.992C139.917 20.984 140.661 20.192 141.605 19.616C142.549 19.04 143.637 18.752 144.869 18.752C146.085 18.752 147.141 19.032 148.037 19.592C148.949 20.136 149.653 20.896 150.149 21.872C150.645 22.848 150.893 23.96 150.893 25.208C150.893 25.464 150.813 25.672 150.653 25.832C150.493 25.976 150.285 26.048 150.029 26.048H139.829V24.512H150.221L149.189 25.256C149.205 24.328 149.037 23.496 148.685 22.76C148.333 22.024 147.829 21.448 147.173 21.032C146.533 20.616 145.765 20.408 144.869 20.408C143.957 20.408 143.157 20.624 142.469 21.056C141.781 21.488 141.245 22.088 140.861 22.856C140.493 23.608 140.309 24.472 140.309 25.448C140.309 26.424 140.517 27.288 140.933 28.04C141.365 28.792 141.949 29.384 142.685 29.816C143.421 30.248 144.269 30.464 145.229 30.464C145.805 30.464 146.381 30.368 146.957 30.176C147.549 29.968 148.021 29.712 148.373 29.408C148.549 29.264 148.749 29.192 148.973 29.192C149.197 29.176 149.389 29.232 149.549 29.36C149.757 29.552 149.861 29.76 149.861 29.984C149.877 30.208 149.789 30.4 149.597 30.56C149.069 31.008 148.397 31.384 147.581 31.688C146.765 31.976 145.981 32.12 145.229 32.12Z" fill="#CEFBF4"/>
</svg>
